# xmcd
#
# Track frame offsets:
#	150
#	8431
#	22069
#	32842
#	50872
#	67209
#	81338
#	91463
#	103013
#	122472
#	146564
#	155588
#	176491
#	187225
#
# Disc length: 2731 seconds
#
# Revision: 1
# Processed by: cddbd v1.5.2PL0 Copyright (c) Steve Scherf et al.
# Submitted via: audiograbber 1.83.01
#
DISCID=c50aa90e
DTITLE=Mountain Ruckus - Holler 'Christmas'
DYEAR=2016
DGENRE=Bluegrass
TTITLE0=Dueling Banjos_Santa Claus Is Coming To Town
TTITLE1=Good King Wenceslas
TTITLE2=Christmas Vacation_Christmas In Dixie
TTITLE3=O Holy Night
TTITLE4=Folk Medley_ You Are My Sunshine, Jingle Bells, State Song, Christmas T
TTITLE4=ime's A-Comin'
TTITLE5=Away In a Manger
TTITLE6=Auld Lang Syne
TTITLE7=Gospel Medley_ Go Tell It On The Mountain, We Three Kings, God Rest Ye 
TTITLE7=Merry Gentlemen, O Holy Night, He's Alive
TTITLE8=Silent Night
TTITLE9=Bluegrass Medley_ Foggy Mountain Breakdown, Carol Of The Bells, Here Co
TTITLE9=me Santa Claus, Winter Wonderland, Santa Train, The Devil Went Down To 
TTITLE9=Georgia, Up On The Housetop
TTITLE10=Jingle Bells
TTITLE11=Pop Medley_ I Want My Two Front Teeth, Snow On The Mountain, Blue Chri
TTITLE11=stmas, Felize Navidad, Sweet Home Alabama
TTITLE12=Santa Claus Is Coming To Town
TTITLE13=What Child Is This
EXTD=Dixie Stampede
EXTT0=
EXTT1=
EXTT2=
EXTT3=
EXTT4=
EXTT5=
EXTT6=
EXTT7=
EXTT8=
EXTT9=
EXTT10=
EXTT11=
EXTT12=
EXTT13=
PLAYORDER=
